<svg xmlns="http://www.w3.org/2000/svg" data-name="Layer 1" viewBox="0 0 100 125" x="0px" y="0px"><title>124all</title><path d="M72.84,56.92,59.49,71.1,36.7,40.27l-31,43.51H94.33ZM53.27,79.78H13.43l23.32-32.7,24.18,32.7Zm12.64,0-4-5.41L72.6,63,86,79.78Z"/><path d="M90,24.11a17,17,0,0,0-1.35-6.66,2,2,0,0,0-3.68,0,13.11,13.11,0,0,1-24.15,0,2,2,0,0,0-3.68,0A17.11,17.11,0,1,0,90,24.11Zm-30.22,0q0-.37,0-.75a17.11,17.11,0,0,0,26.18,0q0,.37,0,.75a13.11,13.11,0,0,1-26.22,0Z"/><text x="0" y="115" fill="#000000" font-size="5px" font-weight="bold" font-family="'Helvetica Neue', Helvetica, Arial-Unicode, Arial, Sans-serif">Created by Chandru</text><text x="0" y="120" fill="#000000" font-size="5px" font-weight="bold" font-family="'Helvetica Neue', Helvetica, Arial-Unicode, Arial, Sans-serif">from the Noun Project</text></svg>